<svg width="100%" height="100%" viewBox="0 0 46 46" fill="none" xmlns="http://www.w3.org/2000/svg">
<path d="M44.2333 20.7834L25.2166 1.76671C24.6333 1.18337 23.8166 0.833374 23 0.833374C22.1833 0.833374 21.3666 1.18337 20.7833 1.76671L16.7 5.85004L21.4833 10.6334C21.95 10.4 22.4166 10.2834 23 10.2834C24.9833 10.2834 26.5 11.8 26.5 13.7834C26.5 14.3667 26.3833 14.8334 26.15 15.3L30.8166 19.9667C31.2833 19.7334 31.75 19.6167 32.3333 19.6167C34.3167 19.6167 35.8333 21.1334 35.8333 23.1167C35.8333 25.1 34.3167 26.6167 32.3333 26.6167C30.35 26.6167 28.8333 25.1 28.8333 23.1167C28.8333 22.5334 28.95 22.0667 29.1833 21.6L24.5166 16.9334C24.4 16.9334 24.2833 17.05 24.1666 17.05V29.1834C25.5666 29.65 26.5 30.9334 26.5 32.45C26.5 34.4334 24.9833 35.95 23 35.95C21.0166 35.95 19.5 34.4334 19.5 32.45C19.5 30.9334 20.4333 29.65 21.8333 29.1834V16.9334C20.4333 16.4667 19.5 15.1834 19.5 13.6667C19.5 13.0834 19.6166 12.6167 19.85 12.15L15.0666 7.36671L1.76665 20.7834C1.18331 21.3667 0.833313 22.1834 0.833313 23C0.833313 23.8167 1.18331 24.6334 1.76665 25.2167L20.7833 44.2334C21.3666 44.8167 22.1833 45.1667 23 45.1667C23.8166 45.1667 24.6333 44.8167 25.2166 44.2334L44.2333 25.2167C44.8167 24.6334 45.1666 23.8167 45.1666 23C45.1666 22.1834 44.8167 21.3667 44.2333 20.7834Z" fill="currentColor"/>
</svg>
